<?xml version="1.0" encoding="utf-8"?>
<!-- Generator: Adobe Illustrator 19.0.1, SVG Export Plug-In . SVG Version: 6.00 Build 0)  -->
<svg version="1.1"
	 id="svg2985" xmlns:sodipodi="http://sodipodi.sourceforge.net/DTD/sodipodi-0.dtd" xmlns:svg="http://www.w3.org/2000/svg" xmlns:dc="http://purl.org/dc/elements/1.1/" xmlns:rdf="http://www.w3.org/1999/02/22-rdf-syntax-ns#" xmlns:inkscape="http://www.inkscape.org/namespaces/inkscape" xmlns:cc="http://creativecommons.org/ns#" sodipodi:docname="reebok_logo14.svg" inkscape:version="0.48.1 "
	 xmlns="http://www.w3.org/2000/svg" xmlns:xlink="http://www.w3.org/1999/xlink" x="0px" y="0px" viewBox="-69 126 500 110"
	 style="enable-background:new -69 126 500 110;" xml:space="preserve">
<style type="text/css">
	.st0{fill:#D01931;}
	.st1{fill:#2B2C2B;}
</style>
<sodipodi:namedview  id="namedview2987" borderopacity="1" showgrid="false" bordercolor="#666666" inkscape:cx="198.48263" gridtolerance="10" inkscape:zoom="1.4718069" pagecolor="#ffffff" inkscape:cy="1.7893114" guidetolerance="10" objecttolerance="10" inkscape:current-layer="g2993" inkscape:window-y="-8" inkscape:window-x="-8" inkscape:window-height="706" inkscape:window-width="1366" inkscape:pageshadow="2" inkscape:pageopacity="0" inkscape:window-maximized="1" fit-margin-top="0.5" fit-margin-left="0.5" fit-margin-bottom="0.5" fit-margin-right="0.5">
	</sodipodi:namedview>
<g id="g2993" transform="matrix(1.25,0,0,-1.25,-683.24967,255.95724)" inkscape:label="317420" inkscape:groupmode="layer">
	<g id="g3035" transform="matrix(1.9559587,0,0,1.9559587,-517.56211,-107.45309)">
		<g id="g3019" transform="matrix(2.2838801,0,0,2.2838801,714.17289,128.79487)">
			<path id="path3021" inkscape:connector-curvature="0" class="st0" d="M-12.4-22.6l3.2,5.6l0.4,6.8l-0.7,0l-9-15.5l0.4-0.7
				L-12.4-22.6z M-11.6-23.9l-6.1-3l0.4-0.7l17.9,0L0.9-27l-6.1,3.1C-5.2-23.9-11.6-23.9-11.6-23.9z M-7.2-10.2l-0.8,0l0.4-6.8
				l3.2-5.6l5.7-3.8l0.4,0.7C1.7-25.7-7.2-10.2-7.2-10.2z"/>
		</g>
		<g id="g3023" transform="matrix(2.2838801,0,0,2.2838801,-702.28199,-150.42683)">
			<g>
				<g id="g3025">
					<g id="g3031" transform="translate(599.9731,123.7541)">
						<path id="path3033" inkscape:connector-curvature="0" class="st1" d="M-12.4-22.6l0-2.3c0-2.7-1.9-4.2-4.4-4.3h-0.6
							c-2.6,0.1-4.4,1.6-4.4,4.3v2.3c0,2.7,1.9,4.2,4.4,4.3c0.1,0,0.4,0,0.5,0C-14.2-18.4-12.3-19.9-12.4-22.6 M-17.2-20.5
							c-1-0.1-2-0.6-2-2v-2.3c0-1.4,1-2,2-2c0.1,0,0.3,0,0.4,0c1,0.1,2,0.6,2,2l0,2.3c0,1.5-1,2-2,2.1C-17-20.5-17.1-20.5-17.2-20.5
							"/>
					</g>
					<g id="g3043" transform="translate(603.8603,123.4729)">
						<path id="path3037" inkscape:connector-curvature="0" class="st1" d="M-12.4-22.6c0,0,3.8,4.3,4,4.6l3.2,0l-4.6-5.2l4.8-5.4
							l-3.2,0l-4.2,4.7l0-4.7l-2.5,0l0,13.1l2.5,0L-12.4-22.6z"/>
					</g>
					<g id="g3039" transform="translate(567.8198,121.9379)">
						<path id="path3041" inkscape:connector-curvature="0" class="st1" d="M-12.4-22.6l0,1.9c0,2.7-1.9,4.2-4.5,4.3l-0.5,0
							c-2.6-0.1-4.5-1.6-4.5-4.3l0-2.3c0-2.6,1.9-4.2,4.4-4.3c0.3,0,0.4,0,0.6,0c3.1,0,4.3,1.6,4.4,3.4l-2.3,0
							c-0.1-0.3-0.2-1.2-2.1-1.2c-0.3,0-0.8,0.1-1.2,0.2c-1.4,0.5-1.2,2.3-1.2,2.4L-12.4-22.6z M-19.2-20.5c0,1.4,0.9,1.9,2,2
							c0.1,0,0.2,0,0.3,0c1.1,0,2-0.6,2-2v-0.2l-4.4,0C-19.2-20.7-19.2-20.5-19.2-20.5z"/>
					</g>
					<g id="g3048" transform="translate(578.4982,121.9222)">
						<path id="path3045" inkscape:connector-curvature="0" class="st1" d="M-12.4-22.6l0,1.9c0,2.7-1.9,4.2-4.5,4.3h-0.5
							c-2.6-0.1-4.5-1.6-4.5-4.3l0-2.3c0-2.6,1.9-4.2,4.4-4.3c0.3,0,0.4,0,0.6,0c3.1,0,4.3,1.6,4.4,3.4l-2.3,0
							c-0.1-0.3-0.2-1.2-2.1-1.2c-0.3,0-0.8,0.1-1.1,0.2c-1.5,0.5-1.2,2.3-1.2,2.4L-12.4-22.6z M-19.2-20.5c0,1.4,0.9,1.9,2,2
							c0.1,0,0.2,0,0.3,0c1.1,0,2-0.6,2-2v-0.2l-4.4,0C-19.3-20.7-19.2-20.5-19.2-20.5z"/>
					</g>
					<g id="g3047" transform="translate(584.8406,128.0434)">
						<path id="path3049" inkscape:connector-curvature="0" class="st1" d="M-12.4-22.6c-1.2,0-2-0.3-2.4-0.7l0,3.3l-2.5,0l0-13.1
							h0.4c0,0,1.1,0.6,1.2,0.6c0.2-0.2,1.3-1,2.8-1c0.2,0,0.4,0,0.6,0c2.6,0.1,4.4,1.6,4.4,4.3l0,2.3C-7.9-24.3-9.8-22.6-12.4-22.6
							 M-10.5-29.2c0-1.4-1-2-2-2c-0.1,0-0.3,0-0.4,0c-1,0.1-2,0.6-2,2l0,2.3c0,1.5,1,2,2,2.1c0.1,0,0.2,0,0.4,0c1-0.1,2-0.6,2-2.1
							L-10.5-29.2z"/>
					</g>
					<g id="g3051" transform="translate(558.0937,117.5499)">
						<path id="path3053" inkscape:connector-curvature="0" class="st1" d="M-12.4-22.6l-4.9,5.4c0.2,0,0.5,0,0.7,0
							c1.7,0,3.8,1.1,3.8,3.7c0,3.2-2.7,4-5,4l-5.7,0l0-13.1l2.6,0v5.9l5.3-5.9L-12.4-22.6z M-20.9-11.7l3.1,0
							c1.4,0,2.7-0.5,2.7-1.8c0-1.4-0.8-1.8-2.7-1.8l-3.1,0L-20.9-11.7z"/>
					</g>
				</g>
			</g>
		</g>
	</g>
</g>
</svg>
